<?xml version="1.0" encoding="UTF-8"?><svg id="Layer_1" xmlns="http://www.w3.org/2000/svg" viewBox="0 0 64 53.42"><defs><style>.cls-1{fill:#cc3535;}.cls-1,.cls-2,.cls-3,.cls-4,.cls-5,.cls-6,.cls-7,.cls-8,.cls-9{stroke-width:0px;}.cls-2{fill:#278885;}.cls-3{fill:#8c810d;}.cls-4{fill:#629542;}.cls-5{fill:#30a279;}.cls-6{fill:#aa3131;}.cls-7{fill:#01aaaa;}.cls-8{fill:#766915;}.cls-9{fill:#567938;}</style></defs><polygon class="cls-1" points="28.06 35.28 33.55 0 7.23 34.02 18.44 45.28 28.06 35.28"/><polygon class="cls-6" points="34.94 28.13 40.45 34.04 50.55 20.92 33.55 0 28.06 35.28 34.94 28.13"/><polygon class="cls-3" points="52.97 47.43 54.56 45.75 57.87 11.4 50.55 20.92 40.45 34.04 52.97 47.43"/><polygon class="cls-8" points="57.87 11.4 54.56 45.75 64 35.79 64 18.86 57.87 11.4"/><polygon class="cls-4" points="2.31 29.08 0 31.16 0 39.6 2.31 29.08"/><polygon class="cls-9" points="7.23 34.02 2.31 29.08 0 39.6 0 53.42 10.61 53.42 18.44 45.28 7.23 34.02"/><polygon class="cls-5" points="52.97 47.43 58.56 53.42 64 53.42 64 35.79 54.56 45.75 52.97 47.43"/><polygon class="cls-7" points="28.06 35.28 18.44 45.28 10.61 53.42 19.61 53.42 25.24 53.42 25.54 53.42 26.53 53.42 32.17 53.42 34.94 28.13 28.06 35.28"/><polygon class="cls-2" points="40.45 34.04 34.94 28.13 32.17 53.42 47.29 53.42 53.82 53.42 58.56 53.42 52.97 47.43 40.45 34.04"/></svg>