<?xml version="1.0" encoding="UTF-8"?><svg id="Layer_1" xmlns="http://www.w3.org/2000/svg" viewBox="0 0 64 36.71"><defs><style>.cls-1{fill:#cc3535;}.cls-1,.cls-2,.cls-3,.cls-4,.cls-5,.cls-6,.cls-7,.cls-8,.cls-9,.cls-10{stroke-width:0px;}.cls-2{fill:#278885;}.cls-3{fill:#8c810d;}.cls-4{fill:#629542;}.cls-5{fill:#955212;}.cls-6{fill:#30a279;}.cls-7{fill:#aa3131;}.cls-8{fill:#01aaaa;}.cls-9{fill:#766915;}.cls-10{fill:#567938;}</style></defs><polygon class="cls-1" points="30.56 24.24 34.59 0 15.24 23.38 23.48 31.12 30.56 24.24"/><polygon class="cls-7" points="35.61 19.33 39.67 23.39 47.08 14.37 34.59 0 30.56 24.24 35.61 19.33"/><polygon class="cls-5" points="5.82 24.86 0 21.15 0 29.75 5.82 24.86"/><polygon class="cls-3" points="48.86 32.59 50.03 31.44 52.47 7.83 47.08 14.37 39.67 23.39 48.86 32.59"/><polygon class="cls-9" points="62.45 19.19 52.47 7.83 50.03 31.44 62.45 19.19"/><polygon class="cls-4" points="5.82 24.86 0 29.75 0 36.71 4.22 36.71 7.7 36.71 11.63 19.98 5.82 24.86"/><polygon class="cls-10" points="15.24 23.38 11.63 19.98 7.7 36.71 17.73 36.71 23.48 31.12 15.24 23.38"/><polygon class="cls-6" points="62.45 19.19 50.03 31.44 48.86 32.59 52.98 36.71 64 36.71 64 17.66 62.45 19.19"/><polygon class="cls-8" points="30.56 24.24 23.48 31.12 17.73 36.71 24.35 36.71 28.48 36.71 28.71 36.71 29.43 36.71 33.58 36.71 35.61 19.33 30.56 24.24"/><polygon class="cls-2" points="39.67 23.39 35.61 19.33 33.58 36.71 44.69 36.71 49.49 36.71 52.98 36.71 48.86 32.59 39.67 23.39"/></svg>