<?xml version="1.0" encoding="UTF-8"?><svg id="Layer_1" xmlns="http://www.w3.org/2000/svg" viewBox="0 0 200 53.02"><defs><style>.cls-1{fill:#cc3535;}.cls-1,.cls-2,.cls-3,.cls-4,.cls-5,.cls-6{stroke-width:0px;}.cls-2{fill:#8c810d;}.cls-3{fill:#629542;}.cls-4{fill:#b26207;}.cls-5{fill:#30a279;}.cls-6{fill:#01aaaa;}</style></defs><path class="cls-1" d="M0,6L14.22,1.78l14.44,4.67L42.89.67l14.22,7.33,14.22-3.11,14.44-4.89,14.22,8.67,14.22-1.11,14.44-6.44,14.22,2.22,14.22-.44,14.22-.44,14.44,4.89,14.22-1.33v47.02H0V6Z"/><path class="cls-4" d="M0,14.22l14.22,2.44,14.44-6.89,14.22,2,14.22,2.44,14.22-4.44,14.44,1.78,14.22,5.56,14.22-6.89,14.44-.22,14.22-.22,14.22-.89,14.22,8.89,14.44-4.22,14.22.67v38.8H0V14.22Z"/><path class="cls-2" d="M0,16.67l14.22,2.22,14.44,1.33,14.22,1.78,14.22-1.11,14.22-4,14.44,6,14.22,2.22,14.22-5.11,14.44-4.89,14.22,1.11,14.22.67,14.22-1.33,14.44,9.11,14.22-8v36.36H0V16.67Z"/><path class="cls-3" d="M0,32l14.22-.22,14.44-3.56,14.22,3.33,14.22-1.78,14.22.89,14.44-4.89,14.22,3.33,14.22,3.33,14.44-7.56,14.22,4,14.22-.22,14.22,3.11,14.44-8.67,14.22,8.89v21.02H0v-21.02Z"/><path class="cls-5" d="M0,36.89l14.22-3.11,14.44-3.33,14.22,9.33,14.22-7.78,14.22,3.56,14.44,1.78,14.22-1.56,14.22-3.56,14.44.44,14.22,2.22,14.22-.89,14.22,5.56,14.44-4,14.22,1.33v16.13H0v-16.13Z"/><path class="cls-6" d="M0,42l14.22,2,14.44,3.56,14.22-8.67,14.22,6.67,14.22-7.11,14.44,9.11,14.22-8,14.22.22,14.44,3.78,14.22,4.22,14.22-1.56,14.22-1.56,14.44,1.56,14.22-4.22v11.02H0v-11.02Z"/></svg>