<?xml version="1.0" encoding="UTF-8"?>
<svg id="Layer_1" data-name="Layer 1" xmlns="http://www.w3.org/2000/svg" version="1.1" viewBox="0 0 200 60">
  <defs>
    <style>
      .cls-1 {
        fill: #cc3535;
      }

      .cls-1, .cls-2, .cls-3, .cls-4, .cls-5, .cls-6 {
        stroke-width: 0px;
      }

      .cls-2 {
        fill: #8c810d;
      }

      .cls-3 {
        fill: #629542;
      }

      .cls-4 {
        fill: #b26207;
      }

      .cls-5 {
        fill: #30a279;
      }

      .cls-6 {
        fill: #01aaaa;
      }
    </style>
  </defs>
  <path class="cls-1" d="M0,13l14.2-4.2,14.4,4.7,14.2-5.8,14.2,7.3,14.2-3.1L85.8,0l14.2,15.7,14.2-1.1,14.4-6.4,14.2,2.2,14.2-.4,14.2-.4,14.4,4.9,14.2-1.3v47H0V13Z"/>
  <path class="cls-4" d="M0,21.2l14.2,2.4,14.4-6.9,14.2,2,14.2,2.4,14.2-4.4,14.4,1.8,14.2,5.6,14.2-6.9,14.4-.2,14.2-.2,14.2-7.9,14.2,15.9,14.4-4.2,14.2.7v38.8H0V21.2Z"/>
  <path class="cls-2" d="M0,23.7l14.2,2.2,14.4,1.3,14.2,1.8,14.2-1.1,14.2-7,14.4,9,14.2,2.2,14.2-5.1,14.4-4.9,14.2,1.1,14.2.7,14.2-1.3,14.4,9.1,14.2-8v36.4H0V23.7Z"/>
  <path class="cls-3" d="M0,39l14.2-.2,14.4-3.6,14.2,3.3,14.2-1.8,14.2.9,14.4-4.9,14.2,3.3,14.2,3.3,14.4-7.6,14.2,4,14.2-.2,14.2,3.1,17.4-14.7,11.2,14.9v21H0v-21h0Z"/>
  <path class="cls-5" d="M0,43.9l14.2-3.1,21.4-7.3,7.2,13.3,14.2-7.8,14.2,3.6,14.4,1.8,14.2-1.6,14.2-3.6,14.4.4,14.2,2.2,14.2-.9,14.2,5.6,14.4-4,14.2,1.3v16.1H0v-16.1h0Z"/>
  <path class="cls-6" d="M0,49l14.2,2,14.4,3.6,14.2-8.7,14.2,6.7,14.2-12.1,14.4,14.1,14.2-8,14.2.2,14.4,3.8,14.2,4.2,14.2-1.6,14.2-1.6,14.4,1.6,14.2-4.2v11H0s0-11,0-11Z"/>
</svg>