<?xml version="1.0" encoding="UTF-8"?><svg id="Layer_2" xmlns="http://www.w3.org/2000/svg" xmlns:xlink="http://www.w3.org/1999/xlink" viewBox="0 0 203.68 126.48"><defs><style>.cls-1{fill:none;}.cls-1,.cls-2{stroke-width:0px;}.cls-3{clip-path:url(#clippath);}.cls-2{fill:#fff;}</style><clipPath id="clippath"><path class="cls-1" d="M17.85,1.26c13.16,0,18.2,5.32,18.2,16.8,0,2.38-.7,7-3.57,10.15,2.87,1.33,4.97,4.83,4.97,9.17,0,8.68-3.85,12.88-17.01,12.88H3.15c-1.33,0-2.1-.77-2.1-2.1V3.43c0-1.4.7-2.1,2.1-2.17h14.7ZM19.53,40.32c3.36,0,5.04-.35,5.04-3.64s-1.54-3.78-4.9-3.78h-4.55c-1.33,0-2.1.7-2.1,2.1v3.22c0,1.4.77,2.1,2.1,2.1,0,0,4.41,0,4.41,0ZM18.97,22.82c3.36,0,5.04-.42,5.04-4.76s-1.68-4.76-5.04-4.76h-3.78c-1.33,0-2.1.7-2.1,2.1v5.32c0,1.4.77,2.1,2.1,2.1h3.78ZM78.96,46.48c.98,1.82-.14,3.78-2.31,3.78h-7.98c-.7,0-1.33-.35-1.61-.98l-7.28-14.07c-.14-.21-.35-.35-.56-.35h-2.8c-1.26,0-2.17.91-2.17,2.17v11.06c0,1.26-.91,2.17-2.17,2.17h-7.84c-1.26,0-2.17-.91-2.17-2.17V3.43c0-1.26.91-2.17,2.17-2.17h15.33c12.46,0,17.5,5.32,17.5,16.8,0,6.51-1.61,11.06-5.32,13.72-.28.21-.35.56-.21.91l7.42,13.79ZM56.42,13.3c-1.26,0-2.17.91-2.17,2.17v5.18c0,1.26.91,2.17,2.17,2.17h3.57c3.36,0,5.04-.42,5.04-4.76s-1.68-4.76-5.04-4.76c0,0-3.57,0-3.57,0ZM117.53,47.88c0,1.54-.7,2.38-2.1,2.38h-7.84c-1.33,0-2.1-.7-2.1-2.1v-6.09c0-1.4-.7-2.1-2.1-2.1h-6.02c-1.33,0-2.1.7-2.1,2.1v6.09c0,1.4-.7,2.1-2.1,2.1h-7.84c-1.33,0-2.1-.84-2.1-2.38v-29.68c0-8.82,1.4-18.2,17.15-18.2s17.15,9.38,17.15,18.2v29.68h0ZM105.49,18.2c0-3.36-.49-5.04-5.11-5.04s-5.11,1.68-5.11,5.04v7.63c0,1.33.77,2.1,2.1,2.1h6.02c1.4-.07,2.1-.77,2.1-2.17,0,0,0-7.56,0-7.56ZM141.89,1.26c13.16,0,17.5,5.32,17.5,16.8v15.33c0,11.48-4.34,16.87-17.5,16.87h-15.61c-1.33,0-2.1-.77-2.1-2.1V3.43c0-1.4.7-2.1,2.1-2.17h15.61ZM142.1,38.22c3.36,0,5.04-.56,5.04-4.76v-15.4c0-4.34-1.68-4.76-5.04-4.76h-3.78c-1.33,0-2.1.7-2.1,2.1v20.72c0,1.33.77,2.1,2.1,2.1,0,0,3.78,0,3.78,0ZM175.21,1.26c1.19,0,1.96.49,2.38,1.61l5.18,13.02c.28.63.7.63.98,0l5.18-13.02c.42-1.12,1.19-1.61,2.38-1.61h10.01c1.61,0,2.31.98,1.61,2.45l-12.53,28c-.14.28-.14.56-.14.84v15.61c0,1.33-.7,2.1-2.1,2.1h-9.8c-1.33,0-2.1-.77-2.1-2.1v-15.61c0-.28,0-.56-.14-.84l-12.6-28c-.7-1.47,0-2.45,1.61-2.45h10.08Z"/></clipPath></defs><path class="cls-2" d="M17.85,1.26c13.16,0,18.2,5.32,18.2,16.8,0,2.38-.7,7-3.57,10.15,2.87,1.33,4.97,4.83,4.97,9.17,0,8.68-3.85,12.88-17.01,12.88H3.15c-1.33,0-2.1-.77-2.1-2.1V3.43c0-1.4.7-2.1,2.1-2.17h14.7ZM19.53,40.32c3.36,0,5.04-.35,5.04-3.64s-1.54-3.78-4.9-3.78h-4.55c-1.33,0-2.1.7-2.1,2.1v3.22c0,1.4.77,2.1,2.1,2.1,0,0,4.41,0,4.41,0ZM18.97,22.82c3.36,0,5.04-.42,5.04-4.76s-1.68-4.76-5.04-4.76h-3.78c-1.33,0-2.1.7-2.1,2.1v5.32c0,1.4.77,2.1,2.1,2.1h3.78Z"/><path class="cls-2" d="M78.96,46.48c.98,1.82-.14,3.78-2.31,3.78h-7.98c-.7,0-1.33-.35-1.61-.98l-7.28-14.07c-.14-.21-.35-.35-.56-.35h-2.8c-1.26,0-2.17.91-2.17,2.17v11.06c0,1.26-.91,2.17-2.17,2.17h-7.84c-1.26,0-2.17-.91-2.17-2.17V3.43c0-1.26.91-2.17,2.17-2.17h15.33c12.46,0,17.5,5.32,17.5,16.8,0,6.51-1.61,11.06-5.32,13.72-.28.21-.35.56-.21.91l7.42,13.79ZM56.42,13.3c-1.26,0-2.17.91-2.17,2.17v5.18c0,1.26.91,2.17,2.17,2.17h3.57c3.36,0,5.04-.42,5.04-4.76s-1.68-4.76-5.04-4.76c0,0-3.57,0-3.57,0Z"/><path class="cls-2" d="M117.53,47.88c0,1.54-.7,2.38-2.1,2.38h-7.84c-1.33,0-2.1-.7-2.1-2.1v-6.09c0-1.4-.7-2.1-2.1-2.1h-6.02c-1.33,0-2.1.7-2.1,2.1v6.09c0,1.4-.7,2.1-2.1,2.1h-7.84c-1.33,0-2.1-.84-2.1-2.38v-29.68c0-8.82,1.4-18.2,17.15-18.2s17.15,9.38,17.15,18.2v29.68h0ZM105.49,18.2c0-3.36-.49-5.04-5.11-5.04s-5.11,1.68-5.11,5.04v7.63c0,1.33.77,2.1,2.1,2.1h6.02c1.4-.07,2.1-.77,2.1-2.17,0,0,0-7.56,0-7.56Z"/><path class="cls-2" d="M141.89,1.26c13.16,0,17.5,5.32,17.5,16.8v15.33c0,11.48-4.34,16.87-17.5,16.87h-15.61c-1.33,0-2.1-.77-2.1-2.1V3.43c0-1.4.7-2.1,2.1-2.17h15.61ZM142.1,38.22c3.36,0,5.04-.56,5.04-4.76v-15.4c0-4.34-1.68-4.76-5.04-4.76h-3.78c-1.33,0-2.1.7-2.1,2.1v20.72c0,1.33.77,2.1,2.1,2.1,0,0,3.78,0,3.78,0Z"/><path class="cls-2" d="M175.21,1.26c1.19,0,1.96.49,2.38,1.61l5.18,13.02c.28.63.7.63.98,0l5.18-13.02c.42-1.12,1.19-1.61,2.38-1.61h10.01c1.61,0,2.31.98,1.61,2.45l-12.53,28c-.14.28-.14.56-.14.84v15.61c0,1.33-.7,2.1-2.1,2.1h-9.8c-1.33,0-2.1-.77-2.1-2.1v-15.61c0-.28,0-.56-.14-.84l-12.6-28c-.7-1.47,0-2.45,1.61-2.45h10.08Z"/><g class="cls-3"><image width="7375" height="1875" transform="translate(0 28.85) scale(.03 .01)" xlink:href="../../../../../../Downloads/mountains.png"/></g></svg>