<?xml version="1.0" encoding="UTF-8"?><svg id="Layer_2" xmlns="http://www.w3.org/2000/svg" viewBox="0 0 202.15 50.26"><defs><style>.cls-1{fill:#88b769;}.cls-1,.cls-2,.cls-3,.cls-4,.cls-5{stroke-width:0px;}.cls-2{fill:#c47526;}.cls-3{fill:#29b2af;}.cls-4{fill:#d35e5e;}.cls-5{fill:#bcac39;}</style></defs><g id="Experiment"><path class="cls-2" d="M16.8,1.26c13.16,0,18.2,5.32,18.2,16.8,0,2.38-.7,7-3.57,10.15,2.87,1.33,4.97,4.83,4.97,9.17,0,8.68-3.85,12.88-17.01,12.88H2.1c-1.33,0-2.1-.77-2.1-2.1V3.43C0,2.03.7,1.33,2.1,1.26h14.7Z"/><path class="cls-1" d="M77.91,46.48c.98,1.82-.14,3.78-2.31,3.78h-7.98c-.7,0-1.33-.35-1.61-.98l-7.28-14.07c-.14-.21-.35-.35-.56-.35h-2.8c-1.26,0-2.17.91-2.17,2.17v11.06c0,1.26-.91,2.17-2.17,2.17h-7.84c-1.26,0-2.17-.91-2.17-2.17V3.43c0-1.26.91-2.17,2.17-2.17h15.33c12.46,0,17.5,5.32,17.5,16.8,0,6.51-1.61,11.06-5.32,13.72-.28.21-.35.56-.21.91l7.42,13.79Z"/><path class="cls-4" d="M116.48,47.88c0,1.54-.7,2.38-2.1,2.38h-7.84c-1.33,0-2.1-.7-2.1-2.1v-6.09c0-1.4-.7-2.1-2.1-2.1h-6.02c-1.33,0-2.1.7-2.1,2.1v6.09c0,1.4-.7,2.1-2.1,2.1h-7.84c-1.33,0-2.1-.84-2.1-2.38v-29.68c0-8.82,1.4-18.2,17.15-18.2s17.15,9.38,17.15,18.2v29.68h0Z"/><path class="cls-3" d="M140.84,1.26c13.16,0,17.5,5.32,17.5,16.8v15.33c0,11.48-4.34,16.87-17.5,16.87h-15.61c-1.33,0-2.1-.77-2.1-2.1V3.43c0-1.4.7-2.1,2.1-2.17h15.61Z"/><path class="cls-5" d="M174.16,1.26c1.19,0,1.96.49,2.38,1.61l5.18,13.02c.28.63.7.63.98,0l5.18-13.02c.42-1.12,1.19-1.61,2.38-1.61h10.01c1.61,0,2.31.98,1.61,2.45l-12.53,28c-.14.28-.14.56-.14.84v15.61c0,1.33-.7,2.1-2.1,2.1h-9.8c-1.33,0-2.1-.77-2.1-2.1v-15.61c0-.28,0-.56-.14-.84l-12.6-28c-.7-1.47,0-2.45,1.61-2.45h10.08Z"/></g></svg>