<?xml version="1.0" encoding="UTF-8"?><svg id="Layer_2" xmlns="http://www.w3.org/2000/svg" viewBox="0 0 1770 268"><defs><style>.cls-1{fill:#278885;}.cls-1,.cls-2,.cls-3,.cls-4,.cls-5,.cls-6,.cls-7,.cls-8{stroke-width:0px;}.cls-2{fill:#629542;}.cls-3{fill:#b26207;}.cls-4{fill:#955212;}.cls-5{fill:#30a279;}.cls-6{fill:#01aaaa;}.cls-7{fill:#567938;}.cls-8{fill:#358260;}</style></defs><g id="Experiment"><polygon class="cls-3" points="0 268 458 30 876 268 0 268"/><polygon class="cls-4" points="397 268 458 30 876 268 397 268"/><polygon class="cls-2" points="701 63 946 268 427 268 701 63"/><polygon class="cls-7" points="647 268 701 63 946 268 647 268"/><polygon class="cls-5" points="1770 268 1461 0 1156 268 1770 268"/><polygon class="cls-8" points="1770 268 1461 0 1425 268 1770 268"/><polygon class="cls-6" points="1270 268 1031 55 785 268 1270 268"/><polygon class="cls-1" points="1003 268 1270 268 1031 55 1003 268"/></g></svg>