<?xml version="1.0" encoding="UTF-8"?><svg id="Layer_2" xmlns="http://www.w3.org/2000/svg" viewBox="0 0 1770 450"><defs><style>.cls-1{fill:#955212;}.cls-1,.cls-2,.cls-3,.cls-4,.cls-5,.cls-6,.cls-7,.cls-8,.cls-9,.cls-10,.cls-11,.cls-12{stroke-width:0px;}.cls-2{fill:#30a279;}.cls-3{fill:#766915;}.cls-4{fill:#aa3131;}.cls-5{fill:#b26207;}.cls-6{fill:#358260;}.cls-7{fill:#629542;}.cls-8{fill:#567938;}.cls-9{fill:#cc3535;}.cls-10{fill:#8c810d;}.cls-11{fill:#01aaaa;}.cls-12{fill:#278885;}</style></defs><g id="Experiment"><polygon class="cls-9" points="1017 0 599 450 1456 450 1017 0"/><polygon class="cls-4" points="1017 0 932.9 450 1456 450 1017 0"/><polygon class="cls-5" points="0 450 458 212 876 450 0 450"/><polygon class="cls-1" points="397 450 458 212 876 450 397 450"/><polygon class="cls-10" points="1263 96 1612 450 936 450 1263 96"/><polygon class="cls-3" points="1263 96 1612 450 1222 450 1263 96"/><polygon class="cls-7" points="701 245 946 450 427 450 701 245"/><polygon class="cls-8" points="647 450 701 245 946 450 647 450"/><polygon class="cls-2" points="1770 450 1461 182 1156 450 1770 450"/><polygon class="cls-6" points="1770 450 1461 182 1425 450 1770 450"/><polygon class="cls-11" points="1270 450 1031 237 785 450 1270 450"/><polygon class="cls-12" points="1003 450 1270 450 1031 237 1003 450"/></g></svg>