<svg id="visual" viewBox="0 0 900 450" width="900" height="450" xmlns="http://www.w3.org/2000/svg" xmlns:xlink="http://www.w3.org/1999/xlink" version="1.1"><path d="M0 349L39 362L78 332L117 336L157 360L196 339L235 334L274 331L313 360L352 355L391 338L430 362L470 352L509 335L548 332L587 358L626 334L665 339L704 334L743 353L783 359L822 354L861 338L900 353L900 451L861 451L822 451L783 451L743 451L704 451L665 451L626 451L587 451L548 451L509 451L470 451L430 451L391 451L352 451L313 451L274 451L235 451L196 451L157 451L117 451L78 451L39 451L0 451Z" fill="#cc3535"></path><path d="M0 363L39 356L78 367L117 354L157 368L196 359L235 358L274 363L313 367L352 347L391 346L430 344L470 361L509 342L548 359L587 346L626 354L665 365L704 364L743 349L783 365L822 365L861 366L900 344L900 451L861 451L822 451L783 451L743 451L704 451L665 451L626 451L587 451L548 451L509 451L470 451L430 451L391 451L352 451L313 451L274 451L235 451L196 451L157 451L117 451L78 451L39 451L0 451Z" fill="#c24c20"></path><path d="M0 354L39 367L78 365L117 369L157 372L196 355L235 378L274 370L313 373L352 368L391 371L430 373L470 357L509 363L548 368L587 352L626 359L665 369L704 367L743 378L783 366L822 376L861 367L900 375L900 451L861 451L822 451L783 451L743 451L704 451L665 451L626 451L587 451L548 451L509 451L470 451L430 451L391 451L352 451L313 451L274 451L235 451L196 451L157 451L117 451L78 451L39 451L0 451Z" fill="#b55f0b"></path><path d="M0 383L39 376L78 375L117 379L157 376L196 359L235 378L274 375L313 381L352 375L391 372L430 360L470 367L509 371L548 379L587 373L626 381L665 361L704 363L743 363L783 379L822 369L861 364L900 384L900 451L861 451L822 451L783 451L743 451L704 451L665 451L626 451L587 451L548 451L509 451L470 451L430 451L391 451L352 451L313 451L274 451L235 451L196 451L157 451L117 451L78 451L39 451L0 451Z" fill="#a56f00"></path><path d="M0 389L39 388L78 391L117 383L157 390L196 370L235 377L274 390L313 369L352 376L391 380L430 389L470 377L509 385L548 377L587 386L626 386L665 384L704 393L743 368L783 388L822 393L861 392L900 380L900 451L861 451L822 451L783 451L743 451L704 451L665 451L626 451L587 451L548 451L509 451L470 451L430 451L391 451L352 451L313 451L274 451L235 451L196 451L157 451L117 451L78 451L39 451L0 451Z" fill="#937c04"></path><path d="M0 378L39 399L78 389L117 378L157 399L196 390L235 391L274 395L313 390L352 390L391 392L430 387L470 394L509 394L548 387L587 396L626 395L665 392L704 383L743 389L783 396L822 386L861 385L900 399L900 451L861 451L822 451L783 451L743 451L704 451L665 451L626 451L587 451L548 451L509 451L470 451L430 451L391 451L352 451L313 451L274 451L235 451L196 451L157 451L117 451L78 451L39 451L0 451Z" fill="#81871c"></path><path d="M0 405L39 399L78 406L117 392L157 401L196 404L235 390L274 398L313 387L352 407L391 387L430 396L470 399L509 405L548 401L587 405L626 399L665 389L704 404L743 398L783 396L822 399L861 394L900 391L900 451L861 451L822 451L783 451L743 451L704 451L665 451L626 451L587 451L548 451L509 451L470 451L430 451L391 451L352 451L313 451L274 451L235 451L196 451L157 451L117 451L78 451L39 451L0 451Z" fill="#6d9034"></path><path d="M0 405L39 402L78 410L117 396L157 402L196 404L235 411L274 399L313 413L352 398L391 409L430 413L470 413L509 398L548 400L587 399L626 400L665 397L704 405L743 401L783 398L822 414L861 399L900 408L900 451L861 451L822 451L783 451L743 451L704 451L665 451L626 451L587 451L548 451L509 451L470 451L430 451L391 451L352 451L313 451L274 451L235 451L196 451L157 451L117 451L78 451L39 451L0 451Z" fill="#59984c"></path><path d="M0 411L39 410L78 419L117 410L157 405L196 413L235 408L274 411L313 421L352 415L391 416L430 419L470 421L509 406L548 421L587 416L626 420L665 410L704 418L743 410L783 413L822 407L861 415L900 412L900 451L861 451L822 451L783 451L743 451L704 451L665 451L626 451L587 451L548 451L509 451L470 451L430 451L391 451L352 451L313 451L274 451L235 451L196 451L157 451L117 451L78 451L39 451L0 451Z" fill="#439e65"></path><path d="M0 427L39 425L78 419L117 418L157 425L196 427L235 419L274 423L313 423L352 418L391 427L430 427L470 424L509 426L548 426L587 416L626 419L665 429L704 423L743 423L783 416L822 417L861 422L900 420L900 451L861 451L822 451L783 451L743 451L704 451L665 451L626 451L587 451L548 451L509 451L470 451L430 451L391 451L352 451L313 451L274 451L235 451L196 451L157 451L117 451L78 451L39 451L0 451Z" fill="#2ba37e"></path><path d="M0 429L39 431L78 436L117 431L157 427L196 430L235 430L274 426L313 434L352 433L391 430L430 427L470 436L509 431L548 426L587 433L626 429L665 434L704 429L743 435L783 436L822 429L861 431L900 433L900 451L861 451L822 451L783 451L743 451L704 451L665 451L626 451L587 451L548 451L509 451L470 451L430 451L391 451L352 451L313 451L274 451L235 451L196 451L157 451L117 451L78 451L39 451L0 451Z" fill="#0ca795"></path><path d="M0 444L39 439L78 439L117 439L157 434L196 436L235 437L274 442L313 436L352 444L391 442L430 441L470 435L509 443L548 441L587 435L626 443L665 442L704 440L743 436L783 435L822 438L861 437L900 434L900 451L861 451L822 451L783 451L743 451L704 451L665 451L626 451L587 451L548 451L509 451L470 451L430 451L391 451L352 451L313 451L274 451L235 451L196 451L157 451L117 451L78 451L39 451L0 451Z" fill="#01aaaa"></path></svg>